# xmcd
#
# Track frame offsets: 
#        150
#        16800
#        37100
#        53608
#        73123
#        92510
#        106468
#        124145
#        146098
#        160873
#
# Disc length: 2402 seconds
#
# Revision: 3
# Processed by: cddbd v1.5.2PL0 Copyright (c) Steve Scherf et al.
# Submitted via: ExactAudioCopy v0.99pb4
#
DISCID=8409600a
DTITLE=Various Artist - Garfield: Am I Cool Or What?
DYEAR=1991
DGENRE=Blues
TTITLE0=The Temptations - Shake Your Paw
TTITLE1=Patti LaBelle - I Love It When I'm Naughty
TTITLE2=Carl Anderson - Fat Is Where It's At
TTITLE3=Natalie Cole - Long 'Bout Midnight
TTITLE4=The Pointer Sisters - Nine Lives
TTITLE5=Lou Rawls - Here Comes Garfield
TTITLE6=Diane Schuur - Next To You I'm Even Better
TTITLE7=David Benoit - Spare Time
TTITLE8=Desiree Goyette - Up On A Fence
TTITLE9=B.B. King - Monday Mourning Blues (Blues For Mr. G.)
EXTD=
EXTT0=The Temptations
EXTT1=Patty LeBelle
EXTT2=Carl Anderson
EXTT3=Natalie Cole
EXTT4=The Pointer Sisters
EXTT5=Lou Rawls
EXTT6=Diane Schuur
EXTT7=Valerie Pinkston
EXTT8=Desiree Goyette
EXTT9=B. B. King
PLAYORDER=
